<svg version="1.1" xmlns="http://www.w3.org/2000/svg" viewBox="0 0 47.17391304347825 47.17391304347825" width="47.17391304347825" height="47.17391304347825">
  <!-- svg-source:excalidraw -->
  
  <rect x="0" y="0" width="47.17391304347825" height="47.17391304347825" fill="#ffffff"></rect><g transform="translate(10 10) rotate(0 13.586956521739125 13.586956521739125)"><svg xmlns="http://www.w3.org/2000/svg" width="27.173913043478258" height="27.173913043478258" viewBox="0 0 24 24" fill="transparent" stroke="#000000" stroke-width="1.288" stroke-linecap="round" stroke-linejoin="round" class="feather feather-trash-2"><polyline points="3 6 5 6 21 6"></polyline><path d="M19 6v14a2 2 0 0 1-2 2H7a2 2 0 0 1-2-2V6m3 0V4a2 2 0 0 1 2-2h4a2 2 0 0 1 2 2v2"></path><line x1="10" y1="11" x2="10" y2="17"></line><line x1="14" y1="11" x2="14" y2="17"></line></svg></g></svg>